<svg width="14" height="15" viewBox="0 0 14 15" fill="none" xmlns="http://www.w3.org/2000/svg">
<path d="M3.88889 9.75C4.31667 9.75 4.66667 10.0875 4.66667 10.5C4.66667 10.9125 4.31667 11.25 3.88889 11.25C3.46111 11.25 3.11111 10.9125 3.11111 10.5C3.11111 10.0875 3.46111 9.75 3.88889 9.75ZM10.1111 9.75C10.5389 9.75 10.8889 10.0875 10.8889 10.5C10.8889 10.9125 10.5389 11.25 10.1111 11.25H7C6.57222 11.25 6.22222 10.9125 6.22222 10.5C6.22222 10.0875 6.57222 9.75 7 9.75H10.1111ZM11.6667 13.5H2.33333C1.90556 13.5 1.55556 13.1625 1.55556 12.75V8.25H12.4444V12.75C12.4444 13.1625 12.0944 13.5 11.6667 13.5ZM2.33333 3H3.11111V3.75C3.11111 4.1625 3.46111 4.5 3.88889 4.5C4.31667 4.5 4.66667 4.1625 4.66667 3.75V3H9.33333V3.75C9.33333 4.1625 9.68333 4.5 10.1111 4.5C10.5389 4.5 10.8889 4.1625 10.8889 3.75V3H11.6667C12.0944 3 12.4444 3.3375 12.4444 3.75V6.75H1.55556V3.75C1.55556 3.3375 1.90556 3 2.33333 3ZM11.6667 1.5H10.8889V0.75C10.8889 0.3375 10.5389 0 10.1111 0C9.68333 0 9.33333 0.3375 9.33333 0.75V1.5H4.66667V0.75C4.66667 0.3375 4.31667 0 3.88889 0C3.46111 0 3.11111 0.3375 3.11111 0.75V1.5H2.33333C1.05 1.5 0 2.5125 0 3.75V12.75C0 13.9875 1.05 15 2.33333 15H11.6667C12.95 15 14 13.9875 14 12.75V3.75C14 2.5125 12.95 1.5 11.6667 1.5Z" fill="#FF5A70"/>
</svg>
