<svg width="44" height="41" viewBox="0 0 44 41" fill="none" xmlns="http://www.w3.org/2000/svg">
  <path d="M14.9155 35.0217L17.9892 39.8451C18.2396 40.231 18.7959 40.2448 19.0602 39.8727L22.3703 35.1182C22.8988 34.3602 23.7611 33.8779 24.693 33.8503L30.2423 33.616C33.3439 33.4782 36.0699 31.2594 36.5149 28.2138C36.5845 27.6901 36.6262 27.1251 36.6262 26.4911V12.9304C36.6262 11.8004 36.3202 10.6841 35.6943 9.73317C34.4843 7.91405 31.7861 5.66771 25.8752 6.15005L7.68327 6.09493C7.68327 6.09493 0.2563 5.61259 0.701361 15.604L0.687453 26.0088C0.687453 27.5523 1.03516 29.0958 1.84183 30.405C2.8154 32.0036 4.59565 33.6298 7.79453 33.7125L12.8432 33.8503C13.6916 33.8779 14.4565 34.3189 14.9155 35.0217Z" fill="white" />
  <path d="M8.69865 2.91136C8.6152 3.06295 8.75428 3.25589 8.93509 3.25589L29.9782 3.58664C29.9782 3.58664 36.4455 3.37992 38.8516 9.18181C39.3384 10.367 39.5192 11.6487 39.5192 12.9303V26.2843C39.5192 26.5461 39.7834 26.7115 40.0199 26.6013C40.8683 26.1878 42.5233 24.8235 43.024 20.3997C43.1214 19.5177 43.1353 18.6219 43.1075 17.7399L42.6485 6.08104C42.6485 6.08104 42.2313 -0.354786 33.4413 0.05865L15.2077 0.0448688C14.1785 0.0448688 13.1632 0.155118 12.1757 0.444524C10.8544 0.816617 9.2967 1.54702 8.69865 2.91136Z" fill="white" />
</svg>
  