<svg width="11" height="14" viewBox="0 0 11 14" fill="none" xmlns="http://www.w3.org/2000/svg">
<path d="M7.5625 9.8C7.94063 9.8 8.25 10.115 8.25 10.5C8.25 10.885 7.94063 11.2 7.5625 11.2H3.4375C3.05938 11.2 2.75 10.885 2.75 10.5C2.75 10.115 3.05938 9.8 3.4375 9.8H7.5625ZM5.5 7C5.87813 7 6.1875 7.315 6.1875 7.7C6.1875 8.085 5.87813 8.4 5.5 8.4H3.4375C3.05938 8.4 2.75 8.085 2.75 7.7C2.75 7.315 3.05938 7 3.4375 7H5.5ZM9.24 12.6H1.76C1.54688 12.6 1.375 12.446 1.375 12.25V1.75C1.375 1.554 1.54688 1.4 1.76 1.4H5.5V3.605C5.5 4.704 6.33875 5.6 7.36312 5.6H9.625V12.25C9.625 12.446 9.45312 12.6 9.24 12.6ZM6.875 2.086L8.75875 4.2H7.36312C7.095 4.2 6.875 3.934 6.875 3.605V2.086ZM10.8212 4.431L7.08125 0.231C6.95062 0.084 6.765 0 6.5725 0H1.76C0.790625 0 0 0.784 0 1.75V12.25C0 13.216 0.790625 14 1.76 14H9.24687C10.2162 14 11.0069 13.216 11.0069 12.25V4.9C11 4.725 10.9381 4.557 10.8212 4.431Z" fill="#898989"/>
</svg>
