<svg width="15" height="11" viewBox="0 0 15 11" fill="none" xmlns="http://www.w3.org/2000/svg">
<path d="M6.75 6.28571C7.1625 6.28571 7.5 6.63929 7.5 7.07143C7.5 7.50357 7.1625 7.85714 6.75 7.85714H3.75C3.3375 7.85714 3 7.50357 3 7.07143C3 6.63929 3.3375 6.28571 3.75 6.28571H6.75ZM11.25 6.28571C11.6625 6.28571 12 6.63929 12 7.07143C12 7.50357 11.6625 7.85714 11.25 7.85714H9.75C9.3375 7.85714 9 7.50357 9 7.07143C9 6.63929 9.3375 6.28571 9.75 6.28571H11.25ZM13.5 8.64286C13.5 9.075 13.1625 9.42857 12.75 9.42857H2.25C1.8375 9.42857 1.5 9.075 1.5 8.64286V4.71429H13.5V8.64286ZM1.5 2.35714C1.5 1.925 1.8375 1.57143 2.25 1.57143H12.75C13.1625 1.57143 13.5 1.925 13.5 2.35714V3.14286H1.5V2.35714ZM12.75 0H2.25C1.0125 0 0 1.06071 0 2.35714V8.64286C0 9.93929 1.0125 11 2.25 11H12.75C13.9875 11 15 9.93929 15 8.64286V2.35714C15 1.06071 13.9875 0 12.75 0Z" fill="#FF5A70"/>
</svg>
