<svg width="15" height="17" viewBox="0 0 15 17" fill="none" xmlns="http://www.w3.org/2000/svg">
  <path d="M13.3784 14.7702C13.1284 14.5302 12.8084 14.2302 12.2984 14.0102C11.8784 13.8202 11.4684 13.8102 11.1684 13.8102C11.1384 13.8102 11.0984 13.8102 11.0684 13.8102C10.8784 13.3002 10.4984 12.9802 9.92836 12.8502C9.17836 12.6902 8.57836 13.0502 8.15836 13.3202C8.19836 13.1102 8.25836 12.8602 8.29836 12.6802C8.43836 12.1002 8.58836 11.5002 8.47836 10.9402C8.38836 10.5002 8.01836 10.1702 7.56836 10.1302C6.40836 10.0602 5.44836 10.6902 4.60836 11.2602C3.73836 11.8502 3.17836 12.2002 2.61836 12.0002C1.92836 11.7602 1.85836 9.90017 2.19836 8.24017C2.49836 6.75017 3.03836 3.98017 4.44836 2.72017C4.91836 2.30017 5.59836 1.84017 6.16836 2.06017C6.82836 2.32017 7.37836 3.41017 7.49836 4.72017C7.54836 5.27017 8.02836 5.67017 8.58836 5.62017C9.13836 5.57017 9.53836 5.08017 9.48836 4.53017C9.28836 2.41017 8.29836 0.750174 6.89836 0.200174C6.05836 -0.129826 4.71836 -0.209826 3.10836 1.23017C1.34836 2.81017 0.698361 5.48017 0.228361 7.86017C-0.0116394 9.05017 -0.581639 12.9902 1.94836 13.8902C3.48836 14.4402 4.73836 13.5902 5.74836 12.9102C5.92836 12.7902 6.10836 12.6602 6.28836 12.5602C6.11836 13.2902 6.01836 14.0602 6.45836 14.7202C7.10836 15.7002 8.03836 15.8102 9.19836 15.0402C9.24836 15.0102 9.29836 14.9802 9.34836 14.9402C9.45836 15.1702 9.64836 15.4202 9.99836 15.5902C10.4184 15.8002 10.8384 15.8102 11.1484 15.8102C11.2784 15.8102 11.4584 15.8202 11.5084 15.8402C11.6984 15.9202 11.8084 16.0202 12.0284 16.2302C12.1884 16.3802 12.3584 16.5402 12.5784 16.7102C12.7584 16.8502 12.9684 16.9102 13.1784 16.9102C13.4784 16.9102 13.7884 16.7702 13.9784 16.5102C14.3084 16.0702 14.2184 15.4402 13.7784 15.1102C13.6084 14.9902 13.4984 14.8802 13.3784 14.7702Z" fill="#898989" />
</svg>
  