<svg width="15" height="15" viewBox="0 0 15 15" fill="none" xmlns="http://www.w3.org/2000/svg">
  <g clip-path="url(#clip0_2_188)">
    <path d="M5.25 6.75C5.6625 6.75 6 7.0875 6 7.5V10.5C6 10.9125 5.6625 11.25 5.25 11.25C4.8375 11.25 4.5 10.9125 4.5 10.5V7.5C4.5 7.0875 4.8375 6.75 5.25 6.75ZM9.75 6.75C10.1625 6.75 10.5 7.0875 10.5 7.5V10.5C10.5 10.9125 10.1625 11.25 9.75 11.25C9.3375 11.25 9 10.9125 9 10.5V7.5C9 7.0875 9.3375 6.75 9.75 6.75ZM12 12.75C12 13.1625 11.6625 13.5 11.25 13.5H3.75C3.3375 13.5 3 13.1625 3 12.75V4.5H12V12.75ZM6 1.7475C6 1.6275 6.1575 1.5 6.375 1.5H8.625C8.8425 1.5 9 1.6275 9 1.7475V3H6V1.7475ZM14.25 3H13.5H10.5V1.7475C10.5 0.78 9.66 0 8.625 0H6.375C5.34 0 4.5 0.78 4.5 1.7475V3H1.5H0.75C0.3375 3 0 3.3375 0 3.75C0 4.1625 0.3375 4.5 0.75 4.5H1.5V12.75C1.5 13.9875 2.5125 15 3.75 15H11.25C12.4875 15 13.5 13.9875 13.5 12.75V4.5H14.25C14.6625 4.5 15 4.1625 15 3.75C15 3.3375 14.6625 3 14.25 3Z" fill="#FF5A70" />
  </g>
  <defs>
    <clipPath id="clip0_2_188">
      <rect width="15" height="15" fill="white" />
    </clipPath>
  </defs>
</svg>
  