<svg width="11" height="14" viewBox="0 0 11 14" fill="none" xmlns="http://www.w3.org/2000/svg">
<path d="M11 13.2222C11 13.65 10.6464 14 10.2143 14C9.78214 14 9.42857 13.65 9.42857 13.2222C9.42857 11.0756 7.66857 9.33333 5.5 9.33333C3.33143 9.33333 1.57143 11.0756 1.57143 13.2222C1.57143 13.65 1.21786 14 0.785714 14C0.353571 14 0 13.65 0 13.2222C0 10.22 2.46714 7.77778 5.5 7.77778C8.53286 7.77778 11 10.22 11 13.2222ZM5.5 1.55556C6.36429 1.55556 7.07143 2.25556 7.07143 3.11111C7.07143 3.96667 6.36429 4.66667 5.5 4.66667C4.63571 4.66667 3.92857 3.96667 3.92857 3.11111C3.92857 2.25556 4.63571 1.55556 5.5 1.55556ZM5.5 6.22222C7.23643 6.22222 8.64286 4.83 8.64286 3.11111C8.64286 1.39222 7.23643 0 5.5 0C3.76357 0 2.35714 1.39222 2.35714 3.11111C2.35714 4.83 3.76357 6.22222 5.5 6.22222Z" fill="#FF5A70"/>
</svg>
